<?xml version="1.0" standalone="no"?>
<!DOCTYPE svg PUBLIC "-//W3C//DTD SVG 20010904//EN"
 "http://www.w3.org/TR/2001/REC-SVG-20010904/DTD/svg10.dtd">
<svg version="1.0" xmlns="http://www.w3.org/2000/svg"
 width="1222.000000pt" height="1280.000000pt" viewBox="0 0 1222.000000 1280.000000"
 preserveAspectRatio="xMidYMid meet">
<metadata>
Created by potrace 1.15, written by Peter Selinger 2001-2017
</metadata>
<g transform="translate(0.000000,1280.000000) scale(0.100000,-0.100000)"
fill="#000000" stroke="none">
<path d="M11895 12789 c-16 -5 -37 -15 -46 -22 -25 -19 -52 -66 -46 -79 2 -7
-66 -86 -152 -176 l-156 -163 -70 -3 c-127 -4 -162 -30 -448 -322 -265 -270
-307 -317 -307 -344 0 -9 15 -32 33 -51 l34 -35 -579 -589 -578 -590 -48 -1
c-93 -2 -187 -76 -180 -141 4 -32 -8 -47 -211 -266 -210 -227 -216 -232 -261
-238 -87 -12 -106 -32 -116 -125 l-7 -59 -190 -192 -190 -192 -52 37 c-119 86
-109 74 -89 109 22 37 11 72 -31 99 -25 17 -29 17 -58 0 -18 -9 -45 -35 -60
-56 -26 -36 -32 -40 -73 -40 -84 0 -125 -40 -111 -110 6 -26 0 -35 -50 -80
-50 -44 -62 -50 -100 -50 -59 0 -83 -25 -83 -86 0 -46 0 -47 -122 -163 -68
-64 -324 -314 -571 -556 -460 -452 -651 -647 -1851 -1895 -559 -581 -704 -727
-731 -733 -45 -12 -76 -47 -82 -96 -5 -35 -13 -47 -48 -71 -24 -16 -58 -47
-76 -69 -19 -22 -95 -96 -170 -164 -104 -94 -145 -126 -172 -131 -35 -7 -87
-54 -87 -80 0 -17 -156 -169 -167 -163 -6 4 -27 2 -47 -4 -49 -14 -61 -45 -47
-118 l11 -54 -128 -123 c-108 -105 -135 -125 -179 -139 -33 -9 -61 -26 -77
-46 -30 -36 -32 -55 -9 -81 16 -18 15 -20 -8 -43 -14 -15 -50 -31 -84 -40 -60
-15 -105 -50 -105 -80 0 -31 26 -68 59 -85 20 -10 69 -46 109 -80 l72 -61 -32
-39 c-18 -22 -37 -40 -41 -40 -5 0 -21 8 -35 19 -45 31 -144 77 -193 89 -35 9
-55 9 -80 0 -56 -19 -147 -78 -180 -116 -28 -32 -31 -40 -26 -86 2 -28 7 -58
11 -66 5 -12 -3 -15 -41 -15 -39 0 -59 -8 -106 -39 -69 -46 -216 -187 -246
-236 -34 -56 -23 -117 33 -179 17 -20 18 -25 6 -29 -31 -11 -90 -80 -90 -105
0 -36 67 -90 151 -123 l68 -27 -58 -66 c-33 -36 -75 -82 -95 -100 l-36 -35 0
47 c0 63 -30 120 -82 154 -35 24 -52 28 -112 28 -63 0 -81 -5 -156 -41 -118
-57 -200 -121 -252 -196 -95 -134 -116 -239 -65 -317 40 -60 70 -76 142 -75
60 2 61 1 82 -35 l21 -36 -157 -137 c-86 -76 -168 -149 -183 -163 l-28 -25 -5
25 c-3 14 -8 37 -11 52 -3 14 -21 42 -40 61 -34 34 -35 35 -107 30 -127 -9
-278 -74 -370 -158 -68 -62 -143 -179 -153 -236 -4 -27 0 -61 10 -98 20 -67
57 -96 122 -96 32 0 46 -6 73 -34 l32 -33 -283 -299 c-156 -165 -328 -347
-383 -406 -89 -93 -105 -106 -143 -113 -43 -7 -94 -41 -113 -77 -23 -43 138
-254 293 -384 129 -108 266 -196 288 -184 29 16 90 89 90 109 0 12 217 249
557 608 307 323 833 879 1170 1235 l613 647 48 -21 c64 -29 164 -30 211 -3 41
25 151 169 193 254 28 55 33 77 36 155 2 50 -1 110 -6 132 l-9 42 54 6 c111
13 147 51 141 149 l-3 64 1156 1224 1156 1224 54 1 c68 1 158 35 203 77 42 40
59 97 60 200 1 73 2 77 16 55 69 -110 232 -180 380 -163 110 12 260 110 260
169 0 59 -77 146 -147 165 -81 23 -146 14 -236 -30 -64 -32 -90 -40 -111 -35
-28 7 -81 55 -71 64 3 3 45 15 94 28 138 35 192 80 220 184 18 66 -164 -132
1510 1639 466 492 865 916 888 942 28 31 51 47 67 47 29 0 103 49 140 92 17
21 26 43 26 66 0 32 20 57 206 259 175 189 214 226 253 241 90 33 131 79 131
145 0 40 -79 -45 1208 1313 l1060 1119 7 68 c4 38 4 92 0 121 -15 110 -43 141
-159 177 -72 22 -113 25 -161 10z"/>
</g>
</svg>
