<?xml version="1.0" encoding="iso-8859-1"?>
<!-- Generator: Adobe Illustrator 19.0.0, SVG Export Plug-In . SVG Version: 6.00 Build 0)  -->
<svg version="1.1" id="Layer_1" xmlns="http://www.w3.org/2000/svg" xmlns:xlink="http://www.w3.org/1999/xlink" x="0px" y="0px"
	 viewBox="0 0 511.999 511.999" style="enable-background:new 0 0 511.999 511.999;" xml:space="preserve">
<g>
	<g>
		<path d="M459.867,150.292c-3.385-3.385-8.873-3.385-12.259,0l-31.12,31.119l-13.897-13.897c-1.765-1.766-4.201-2.68-6.7-2.521
			c-2.491,0.164-4.792,1.395-6.31,3.377l-24.108,31.459c-2.644,3.451-2.324,8.327,0.75,11.402l10.223,10.223l-31.168,31.168
			L309.61,55.666c-0.459-2.533-1.993-4.637-4.076-5.887L224.522,1.233c-2.743-1.643-6.167-1.643-8.91,0l-81.012,48.545
			c-2.084,1.25-3.617,3.355-4.076,5.887L49.733,501.787c-0.458,2.529,0.229,5.129,1.876,7.101c1.648,1.972,4.084,3.111,6.654,3.111
			h323.612c2.569,0,5.006-1.14,6.654-3.111c1.647-1.972,2.335-4.573,1.876-7.101L349.038,273.38l39.668-39.668l10.213,10.213
			c1.682,1.682,3.901,2.539,6.132,2.539c1.849,0,3.706-0.589,5.271-1.788l31.459-24.108c1.982-1.519,3.212-3.82,3.376-6.31
			c0.165-2.492-0.754-4.933-2.52-6.699l-13.89-13.89l31.12-31.12C463.252,159.164,463.252,153.676,459.867,150.292z M345.539,351.35
			h-74.473l63.055-63.055L345.539,351.35z M220.067,18.774l49.682,29.769h-99.364L220.067,18.774z M146.293,65.879h147.548
			l36.52,201.659l-76.06,76.06V98.818c0-4.787-3.88-8.668-8.668-8.668h-51.131c-4.788,0-8.668,3.881-8.668,8.668V351.35H94.594
			L146.293,65.879z M236.964,107.486V351.35h-8.229V107.486H236.964z M211.399,107.486V351.35h-8.229V107.486H211.399z
			 M371.495,494.664H68.641l22.815-125.977H348.68L371.495,494.664z M405.806,226.295l-21.951-21.952l13.471-17.578l26.058,26.058
			L405.806,226.295z"/>
	</g>
</g>
<g>
</g>
<g>
</g>
<g>
</g>
<g>
</g>
<g>
</g>
<g>
</g>
<g>
</g>
<g>
</g>
<g>
</g>
<g>
</g>
<g>
</g>
<g>
</g>
<g>
</g>
<g>
</g>
<g>
</g>
</svg>
